<svg xmlns="http://www.w3.org/2000/svg" xmlns:xlink="http://www.w3.org/1999/xlink" width="2000" zoomAndPan="magnify" viewBox="0 0 1500 1499.999933" height="2000" preserveAspectRatio="xMidYMid meet" version="1.0"><defs><g/><clipPath id="0399a8f3c1"><rect x="0" width="773" y="0" height="603"/></clipPath><clipPath id="ca7a823c96"><path d="M 673 579.039062 L 825 579.039062 L 825 921 L 673 921 Z M 673 579.039062 " clip-rule="nonzero"/></clipPath><clipPath id="84ff10c067"><rect x="0" width="663" y="0" height="433"/></clipPath></defs><rect x="-150" width="1800" fill="#0a192f" y="-149.999993" height="1799.99992" fill-opacity="1"/><rect x="-150" width="1800" fill="#0a192f" y="-149.999993" height="1799.99992" fill-opacity="1"/><g transform="matrix(1, 0, 0, 1, 399, 570)"><g clip-path="url(#0399a8f3c1)"><g fill="#c9d1d9" fill-opacity="1"><g transform="translate(18.82834, 231.501894)"><g><path d="M 9.859375 2.96875 L 12.53125 2.25 C 12.71875 2.195312 12.921875 2.234375 13.140625 2.359375 C 13.359375 2.484375 13.492188 2.640625 13.546875 2.828125 L 14.296875 5.59375 C 14.359375 5.832031 14.320312 6.050781 14.1875 6.25 C 14.0625 6.457031 13.90625 6.585938 13.71875 6.640625 L 11.046875 7.359375 C 9.929688 7.660156 9.085938 8.3125 8.515625 9.3125 C 7.941406 10.320312 7.8125 11.382812 8.125 12.5 L 11.625 25.390625 C 11.925781 26.503906 12.578125 27.347656 13.578125 27.921875 C 14.585938 28.492188 15.648438 28.628906 16.765625 28.328125 L 21.921875 26.921875 C 23.035156 26.617188 23.878906 25.960938 24.453125 24.953125 C 25.023438 23.953125 25.160156 22.894531 24.859375 21.78125 L 21.359375 8.890625 C 21.035156 7.734375 20.957031 6.582031 21.125 5.4375 C 21.289062 4.300781 21.644531 3.25 22.1875 2.28125 C 22.726562 1.3125 23.457031 0.460938 24.375 -0.265625 C 25.289062 -0.992188 26.328125 -1.515625 27.484375 -1.828125 L 32.625 -3.234375 C 33.78125 -3.546875 34.925781 -3.617188 36.0625 -3.453125 C 37.207031 -3.285156 38.269531 -2.925781 39.25 -2.375 C 40.238281 -1.820312 41.09375 -1.09375 41.8125 -0.1875 C 42.53125 0.707031 43.050781 1.734375 43.375 2.890625 L 46.875 15.78125 C 47.1875 16.9375 47.257812 18.082031 47.09375 19.21875 C 46.9375 20.363281 46.570312 21.425781 46 22.40625 C 45.4375 23.382812 44.703125 24.234375 43.796875 24.953125 C 42.898438 25.671875 41.875 26.1875 40.71875 26.5 L 38.0625 27.234375 C 37.519531 27.378906 37.175781 27.1875 37.03125 26.65625 L 36.28125 23.890625 C 36.132812 23.347656 36.332031 23.003906 36.875 22.859375 L 39.53125 22.125 C 40.644531 21.820312 41.488281 21.164062 42.0625 20.15625 C 42.644531 19.15625 42.785156 18.097656 42.484375 16.984375 L 38.984375 4.09375 C 38.671875 2.976562 38.007812 2.132812 37 1.5625 C 35.988281 0.988281 34.925781 0.851562 33.8125 1.15625 L 28.671875 2.5625 C 27.554688 2.863281 26.710938 3.515625 26.140625 4.515625 C 25.566406 5.515625 25.4375 6.570312 25.75 7.6875 L 29.25 20.578125 C 29.5625 21.734375 29.632812 22.878906 29.46875 24.015625 C 29.3125 25.160156 28.953125 26.222656 28.390625 27.203125 C 27.828125 28.179688 27.09375 29.03125 26.1875 29.75 C 25.28125 30.46875 24.253906 30.984375 23.109375 31.296875 L 17.953125 32.703125 C 16.804688 33.015625 15.65625 33.085938 14.5 32.921875 C 13.34375 32.765625 12.28125 32.40625 11.3125 31.84375 C 10.351562 31.289062 9.507812 30.5625 8.78125 29.65625 C 8.0625 28.757812 7.546875 27.734375 7.234375 26.578125 L 3.734375 13.6875 C 3.410156 12.53125 3.332031 11.378906 3.5 10.234375 C 3.664062 9.097656 4.019531 8.039062 4.5625 7.0625 C 5.113281 6.09375 5.847656 5.242188 6.765625 4.515625 C 7.679688 3.796875 8.710938 3.28125 9.859375 2.96875 Z M 9.859375 2.96875 "/></g></g></g><g fill="#c9d1d9" fill-opacity="1"><g transform="translate(37.463979, 291.942651)"><g><path d="M 6.3125 12.703125 C 5.78125 11.628906 5.484375 10.515625 5.421875 9.359375 C 5.367188 8.210938 5.515625 7.117188 5.859375 6.078125 C 6.210938 5.035156 6.769531 4.066406 7.53125 3.171875 C 8.300781 2.285156 9.21875 1.578125 10.28125 1.046875 L 31.40625 -9.453125 C 32.476562 -9.984375 33.585938 -10.273438 34.734375 -10.328125 C 35.890625 -10.390625 37 -10.253906 38.0625 -9.921875 C 39.132812 -9.585938 40.109375 -9.046875 40.984375 -8.296875 C 41.859375 -7.554688 42.5625 -6.648438 43.09375 -5.578125 L 49.03125 6.390625 C 49.570312 7.460938 49.875 8.570312 49.9375 9.71875 C 50 10.875 49.847656 11.988281 49.484375 13.0625 C 49.117188 14.132812 48.5625 15.109375 47.8125 15.984375 C 47.070312 16.859375 46.164062 17.5625 45.09375 18.09375 L 23.96875 28.59375 C 22.90625 29.125 21.785156 29.425781 20.609375 29.5 C 19.441406 29.570312 18.332031 29.425781 17.28125 29.0625 C 16.226562 28.695312 15.257812 28.140625 14.375 27.390625 C 13.5 26.648438 12.789062 25.742188 12.25 24.671875 Z M 39.03125 -3.546875 C 38.519531 -4.578125 37.710938 -5.273438 36.609375 -5.640625 C 35.503906 -6.015625 34.4375 -5.945312 33.40625 -5.4375 L 12.28125 5.0625 C 11.238281 5.582031 10.535156 6.390625 10.171875 7.484375 C 9.804688 8.585938 9.878906 9.65625 10.390625 10.6875 L 16.328125 22.65625 C 16.847656 23.6875 17.65625 24.382812 18.75 24.75 C 19.84375 25.125 20.910156 25.050781 21.953125 24.53125 L 43.078125 14.03125 C 44.109375 13.519531 44.8125 12.710938 45.1875 11.609375 C 45.5625 10.515625 45.488281 9.453125 44.96875 8.421875 Z M 39.03125 -3.546875 "/></g></g></g><g fill="#c9d1d9" fill-opacity="1"><g transform="translate(67.472848, 347.61681)"><g><path d="M 35.78125 -19.46875 C 36.226562 -19.8125 36.625 -19.757812 36.96875 -19.3125 L 53.984375 2.78125 C 54.328125 3.21875 54.273438 3.609375 53.828125 3.953125 L 51.546875 5.703125 C 51.109375 6.035156 50.71875 5.984375 50.375 5.546875 L 35.578125 -13.671875 L 24.71875 -5.296875 L 38.28125 12.3125 C 38.40625 12.46875 38.453125 12.671875 38.421875 12.921875 C 38.390625 13.171875 38.289062 13.359375 38.125 13.484375 L 35.84375 15.234375 C 35.65625 15.378906 35.441406 15.429688 35.203125 15.390625 C 34.972656 15.347656 34.796875 15.25 34.671875 15.09375 L 21.109375 -2.515625 L 7.3125 8.109375 C 6.863281 8.453125 6.472656 8.40625 6.140625 7.96875 L 4.421875 5.75 C 4.078125 5.300781 4.128906 4.90625 4.578125 4.5625 Z M 35.78125 -19.46875 "/></g></g></g><g fill="#c9d1d9" fill-opacity="1"><g transform="translate(107.714119, 396.413101)"><g><path d="M 14.578125 11.625 L 38.078125 -15.21875 L 28.828125 -23.3125 C 28.421875 -23.664062 28.398438 -24.050781 28.765625 -24.46875 L 30.65625 -26.625 C 31.03125 -27.050781 31.421875 -27.085938 31.828125 -26.734375 L 53.734375 -7.546875 C 54.148438 -7.179688 54.171875 -6.785156 53.796875 -6.359375 L 51.90625 -4.203125 C 51.539062 -3.785156 51.148438 -3.757812 50.734375 -4.125 L 41.5 -12.21875 L 18 14.625 C 17.832031 14.8125 17.625 14.90625 17.375 14.90625 C 17.132812 14.90625 16.941406 14.835938 16.796875 14.703125 L 14.640625 12.8125 C 14.222656 12.445312 14.203125 12.050781 14.578125 11.625 Z M 14.578125 11.625 "/></g></g></g><g fill="#c9d1d9" fill-opacity="1"><g transform="translate(156.657474, 436.474431)"><g><path d="M 48.734375 -18.3125 C 48.878906 -18.457031 49.070312 -18.5625 49.3125 -18.625 C 49.5625 -18.6875 49.789062 -18.660156 50 -18.546875 L 52.4375 -17.140625 C 52.601562 -17.035156 52.707031 -16.863281 52.75 -16.625 C 52.800781 -16.394531 52.773438 -16.195312 52.671875 -16.03125 L 30.28125 16.515625 C 30.164062 16.722656 29.988281 16.851562 29.75 16.90625 C 29.519531 16.957031 29.300781 16.925781 29.09375 16.8125 L 25.96875 15 C 25.488281 14.71875 25.242188 14.300781 25.234375 13.75 L 25.140625 -1.734375 L 11.65625 5.90625 C 11.175781 6.1875 10.695312 6.1875 10.21875 5.90625 L 7.109375 4.109375 C 6.898438 3.984375 6.757812 3.804688 6.6875 3.578125 C 6.613281 3.347656 6.632812 3.128906 6.75 2.921875 L 23.75 -32.75 C 23.820312 -32.9375 23.96875 -33.066406 24.1875 -33.140625 C 24.414062 -33.210938 24.632812 -33.191406 24.84375 -33.078125 L 27.28125 -31.671875 C 27.488281 -31.546875 27.617188 -31.363281 27.671875 -31.125 C 27.722656 -30.894531 27.710938 -30.6875 27.640625 -30.5 L 12.828125 0.421875 L 25.34375 -7 C 25.820312 -7.269531 26.304688 -7.265625 26.796875 -6.984375 L 28.859375 -5.796875 C 29.347656 -5.515625 29.59375 -5.097656 29.59375 -4.546875 L 29.40625 10 Z M 48.734375 -18.3125 "/></g></g></g><g fill="#c9d1d9" fill-opacity="1"><g transform="translate(212.442574, 466.276282)"><g><path d="M 38.296875 -30.328125 C 38.523438 -30.253906 38.71875 -30.101562 38.875 -29.875 C 39.03125 -29.65625 39.113281 -29.441406 39.125 -29.234375 L 40.28125 -6.8125 C 40.300781 -6.59375 40.285156 -6.328125 40.234375 -6.015625 C 40.179688 -5.703125 40.117188 -5.429688 40.046875 -5.203125 L 34.546875 10.890625 C 34.367188 11.421875 34.019531 11.597656 33.5 11.421875 L 30.828125 10.515625 C 30.296875 10.328125 30.117188 9.96875 30.296875 9.4375 L 33.875 -1.046875 L 13.3125 -8.046875 L 9.734375 2.4375 C 9.554688 2.96875 9.203125 3.140625 8.671875 2.953125 L 5.9375 2.03125 C 5.414062 1.851562 5.242188 1.5 5.421875 0.96875 L 10.921875 -15.125 C 10.992188 -15.351562 11.109375 -15.609375 11.265625 -15.890625 C 11.429688 -16.171875 11.582031 -16.390625 11.71875 -16.546875 L 26.328125 -33.59375 C 26.453125 -33.757812 26.65625 -33.878906 26.9375 -33.953125 C 27.21875 -34.023438 27.453125 -34.03125 27.640625 -33.96875 Z M 35.328125 -5.296875 L 35.796875 -6.65625 L 34.75 -26.75 L 28.34375 -28.9375 L 15.234375 -13.65625 L 14.765625 -12.296875 Z M 35.328125 -5.296875 "/></g></g></g><g fill="#c9d1d9" fill-opacity="1"><g transform="translate(272.951881, 484.688897)"><g><path d="M 30.4375 3.28125 L 25.03125 -15.078125 L 12.328125 -16.78125 L 10.015625 0.484375 C 9.941406 1.046875 9.628906 1.289062 9.078125 1.21875 L 6.28125 0.84375 C 5.738281 0.769531 5.503906 0.453125 5.578125 -0.109375 L 10.8125 -39.140625 C 10.894531 -39.703125 11.207031 -39.945312 11.75 -39.875 L 32.765625 -37.0625 C 33.953125 -36.894531 35.035156 -36.507812 36.015625 -35.90625 C 37.003906 -35.3125 37.835938 -34.566406 38.515625 -33.671875 C 39.203125 -32.773438 39.703125 -31.769531 40.015625 -30.65625 C 40.328125 -29.550781 40.40625 -28.40625 40.25 -27.21875 L 39.546875 -21.9375 C 39.285156 -19.988281 38.46875 -18.332031 37.09375 -16.96875 C 35.726562 -15.601562 34.082031 -14.769531 32.15625 -14.46875 L 30.046875 -14.140625 L 35.359375 3.953125 C 35.453125 4.160156 35.4375 4.335938 35.3125 4.484375 C 35.195312 4.640625 35.019531 4.703125 34.78125 4.671875 L 31.515625 4.234375 C 31.273438 4.203125 31.046875 4.085938 30.828125 3.890625 C 30.617188 3.691406 30.488281 3.488281 30.4375 3.28125 Z M 12.9375 -21.28125 L 30.328125 -18.953125 C 31.472656 -18.796875 32.503906 -19.066406 33.421875 -19.765625 C 34.347656 -20.472656 34.890625 -21.398438 35.046875 -22.546875 L 35.75 -27.828125 C 35.90625 -28.972656 35.628906 -30.003906 34.921875 -30.921875 C 34.222656 -31.847656 33.300781 -32.390625 32.15625 -32.546875 L 14.765625 -34.875 Z M 12.9375 -21.28125 "/></g></g></g><g fill="#c9d1d9" fill-opacity="1"><g transform="translate(335.881889, 491.016219)"><g><path d="M 6.34375 -1.234375 L 3.90625 -40.546875 C 3.875 -41.109375 4.140625 -41.410156 4.703125 -41.453125 L 32.546875 -43.171875 C 33.109375 -43.203125 33.40625 -42.9375 33.4375 -42.375 L 33.609375 -39.5 C 33.648438 -38.957031 33.390625 -38.671875 32.828125 -38.640625 L 8.625 -37.140625 L 9.46875 -23.4375 L 30.4375 -24.734375 C 30.644531 -24.742188 30.84375 -24.664062 31.03125 -24.5 C 31.21875 -24.332031 31.316406 -24.144531 31.328125 -23.9375 L 31.515625 -21.078125 C 31.523438 -20.835938 31.445312 -20.632812 31.28125 -20.46875 C 31.113281 -20.300781 30.925781 -20.210938 30.71875 -20.203125 L 9.75 -18.90625 L 10.59375 -5.203125 L 34.796875 -6.703125 C 35.035156 -6.710938 35.238281 -6.632812 35.40625 -6.46875 C 35.582031 -6.3125 35.675781 -6.132812 35.6875 -5.9375 L 35.875 -3.0625 C 35.90625 -2.5 35.640625 -2.203125 35.078125 -2.171875 L 7.234375 -0.453125 C 6.671875 -0.410156 6.375 -0.671875 6.34375 -1.234375 Z M 6.34375 -1.234375 "/></g></g></g><g fill="#c9d1d9" fill-opacity="1"><g transform="translate(398.78051, 485.021255)"><g/></g></g><g fill="#c9d1d9" fill-opacity="1"><g transform="translate(459.328176, 466.949492)"><g><path d="M 4.53125 -3.140625 L -12.671875 -38.5625 C -12.753906 -38.738281 -12.753906 -38.945312 -12.671875 -39.1875 C -12.585938 -39.4375 -12.457031 -39.609375 -12.28125 -39.703125 L 6.84375 -48.984375 C 7.914062 -49.503906 9.023438 -49.789062 10.171875 -49.84375 C 11.328125 -49.894531 12.4375 -49.734375 13.5 -49.359375 C 14.570312 -48.984375 15.546875 -48.421875 16.421875 -47.671875 C 17.296875 -46.921875 17.992188 -46.003906 18.515625 -44.921875 L 28.828125 -23.703125 C 29.347656 -22.628906 29.632812 -21.507812 29.6875 -20.34375 C 29.75 -19.175781 29.59375 -18.066406 29.21875 -17.015625 C 28.84375 -15.960938 28.273438 -15 27.515625 -14.125 C 26.765625 -13.25 25.851562 -12.550781 24.78125 -12.03125 L 5.65625 -2.75 C 5.476562 -2.65625 5.269531 -2.640625 5.03125 -2.703125 C 4.800781 -2.773438 4.632812 -2.921875 4.53125 -3.140625 Z M 7.015625 -8.46875 L 22.796875 -16.125 C 23.835938 -16.625 24.546875 -17.421875 24.921875 -18.515625 C 25.296875 -19.609375 25.234375 -20.675781 24.734375 -21.71875 L 14.421875 -42.9375 C 13.921875 -43.976562 13.125 -44.6875 12.03125 -45.0625 C 10.9375 -45.445312 9.867188 -45.390625 8.828125 -44.890625 L -6.953125 -37.234375 Z M 7.015625 -8.46875 "/></g></g></g><g fill="#c9d1d9" fill-opacity="1"><g transform="translate(515.268368, 437.446823)"><g><path d="M 4.59375 -4.53125 L -19.15625 -35.953125 C -19.488281 -36.398438 -19.429688 -36.796875 -18.984375 -37.140625 L 3.265625 -53.953125 C 3.710938 -54.296875 4.101562 -54.242188 4.4375 -53.796875 L 6.171875 -51.515625 C 6.503906 -51.066406 6.445312 -50.671875 6 -50.328125 L -13.34375 -35.703125 L -5.0625 -24.765625 L 11.703125 -37.4375 C 11.867188 -37.5625 12.070312 -37.609375 12.3125 -37.578125 C 12.5625 -37.546875 12.75 -37.445312 12.875 -37.28125 L 14.609375 -34.984375 C 14.753906 -34.796875 14.800781 -34.582031 14.75 -34.34375 C 14.707031 -34.113281 14.601562 -33.9375 14.4375 -33.8125 L -2.328125 -21.140625 L 5.953125 -10.1875 L 25.296875 -24.8125 C 25.492188 -24.957031 25.707031 -25.007812 25.9375 -24.96875 C 26.164062 -24.925781 26.34375 -24.828125 26.46875 -24.671875 L 28.1875 -22.375 C 28.53125 -21.925781 28.476562 -21.53125 28.03125 -21.1875 L 5.78125 -4.375 C 5.332031 -4.03125 4.9375 -4.082031 4.59375 -4.53125 Z M 4.59375 -4.53125 "/></g></g></g><g fill="#c9d1d9" fill-opacity="1"><g transform="translate(564.382619, 397.696706)"><g><path d="M 8.828125 -11.046875 L -12.21875 -18.703125 C -12.457031 -18.796875 -12.71875 -18.914062 -13 -19.0625 C -13.289062 -19.21875 -13.507812 -19.359375 -13.65625 -19.484375 L -26.390625 -30.84375 C -26.566406 -31.007812 -26.65625 -31.210938 -26.65625 -31.453125 C -26.664062 -31.691406 -26.601562 -31.882812 -26.46875 -32.03125 L -24.5625 -34.171875 C -24.1875 -34.597656 -23.785156 -34.625 -23.359375 -34.25 L -11.296875 -23.484375 C -11.117188 -23.328125 -10.890625 -23.160156 -10.609375 -22.984375 C -10.335938 -22.816406 -10.097656 -22.703125 -9.890625 -22.640625 L 8.25 -16.078125 L 12.75 -21.125 L 4.1875 -38.40625 C 4.082031 -38.582031 3.929688 -38.800781 3.734375 -39.0625 C 3.535156 -39.320312 3.347656 -39.53125 3.171875 -39.6875 L -8.890625 -50.453125 C -9.316406 -50.828125 -9.34375 -51.226562 -8.96875 -51.65625 L -7.046875 -53.796875 C -6.679688 -54.203125 -6.285156 -54.21875 -5.859375 -53.84375 L 6.875 -42.484375 C 7.019531 -42.359375 7.191406 -42.164062 7.390625 -41.90625 C 7.585938 -41.65625 7.742188 -41.421875 7.859375 -41.203125 L 17.828125 -21.15625 C 17.929688 -20.96875 17.960938 -20.726562 17.921875 -20.4375 C 17.878906 -20.15625 17.78125 -19.925781 17.625 -19.75 L 10.15625 -11.390625 C 10 -11.210938 9.785156 -11.09375 9.515625 -11.03125 C 9.253906 -10.976562 9.023438 -10.984375 8.828125 -11.046875 Z M 8.828125 -11.046875 "/></g></g></g><g fill="#c9d1d9" fill-opacity="1"><g transform="translate(604.861046, 349.179653)"><g><path d="M 2.546875 -5.9375 L -31.375 -25.984375 C -31.863281 -26.265625 -31.96875 -26.648438 -31.6875 -27.140625 L -17.5 -51.140625 C -17.21875 -51.628906 -16.832031 -51.734375 -16.34375 -51.453125 L -13.875 -49.984375 C -13.394531 -49.703125 -13.296875 -49.316406 -13.578125 -48.828125 L -25.921875 -27.953125 L -14.109375 -20.96875 L -3.421875 -39.0625 C -3.304688 -39.238281 -3.128906 -39.359375 -2.890625 -39.421875 C -2.648438 -39.492188 -2.441406 -39.476562 -2.265625 -39.375 L 0.21875 -37.90625 C 0.425781 -37.789062 0.550781 -37.613281 0.59375 -37.375 C 0.632812 -37.144531 0.597656 -36.941406 0.484375 -36.765625 L -10.203125 -18.671875 L 1.609375 -11.6875 L 13.953125 -32.5625 C 14.066406 -32.769531 14.242188 -32.898438 14.484375 -32.953125 C 14.722656 -33.003906 14.925781 -32.976562 15.09375 -32.875 L 17.578125 -31.40625 C 18.054688 -31.125 18.15625 -30.738281 17.875 -30.25 L 3.6875 -6.25 C 3.40625 -5.757812 3.023438 -5.65625 2.546875 -5.9375 Z M 2.546875 -5.9375 "/></g></g></g><g fill="#c9d1d9" fill-opacity="1"><g transform="translate(635.178419, 293.748121)"><g><path d="M -36.125 -21.09375 L -35.171875 -23.8125 C -34.984375 -24.332031 -34.625 -24.5 -34.09375 -24.3125 L -0.421875 -12.46875 L 7.34375 -34.5625 C 7.425781 -34.789062 7.578125 -34.945312 7.796875 -35.03125 C 8.015625 -35.113281 8.210938 -35.125 8.390625 -35.0625 L 11.109375 -34.109375 C 11.640625 -33.921875 11.8125 -33.566406 11.625 -33.046875 L 2.625 -7.453125 C 2.5625 -7.265625 2.421875 -7.109375 2.203125 -6.984375 C 1.992188 -6.867188 1.773438 -6.851562 1.546875 -6.9375 L -35.609375 -20.015625 C -35.835938 -20.085938 -35.992188 -20.238281 -36.078125 -20.46875 C -36.171875 -20.695312 -36.1875 -20.90625 -36.125 -21.09375 Z M -36.125 -21.09375 "/></g></g></g><g fill="#c9d1d9" fill-opacity="1"><g transform="translate(654.180834, 233.421626)"><g><path d="M 2.015625 -14.046875 C 1.847656 -12.859375 1.460938 -11.773438 0.859375 -10.796875 C 0.253906 -9.816406 -0.488281 -8.992188 -1.375 -8.328125 C -2.257812 -7.671875 -3.265625 -7.191406 -4.390625 -6.890625 C -5.523438 -6.585938 -6.679688 -6.523438 -7.859375 -6.703125 L -31.21875 -10.0625 C -32.40625 -10.226562 -33.488281 -10.613281 -34.46875 -11.21875 C -35.445312 -11.820312 -36.273438 -12.566406 -36.953125 -13.453125 C -37.640625 -14.335938 -38.132812 -15.335938 -38.4375 -16.453125 C -38.738281 -17.566406 -38.804688 -18.71875 -38.640625 -19.90625 L -36.734375 -33.125 C -36.554688 -34.3125 -36.164062 -35.394531 -35.5625 -36.375 C -34.957031 -37.351562 -34.203125 -38.175781 -33.296875 -38.84375 C -32.390625 -39.519531 -31.378906 -40.007812 -30.265625 -40.3125 C -29.160156 -40.613281 -28.015625 -40.679688 -26.828125 -40.515625 L -3.46875 -37.15625 C -2.289062 -36.976562 -1.203125 -36.585938 -0.203125 -35.984375 C 0.796875 -35.378906 1.625 -34.628906 2.28125 -33.734375 C 2.945312 -32.835938 3.429688 -31.832031 3.734375 -30.71875 C 4.035156 -29.601562 4.097656 -28.453125 3.921875 -27.265625 Z M -34.140625 -19.25 C -34.296875 -18.101562 -34.023438 -17.066406 -33.328125 -16.140625 C -32.640625 -15.210938 -31.722656 -14.664062 -30.578125 -14.5 L -7.21875 -11.140625 C -6.070312 -10.972656 -5.035156 -11.234375 -4.109375 -11.921875 C -3.179688 -12.617188 -2.640625 -13.539062 -2.484375 -14.6875 L -0.578125 -27.90625 C -0.410156 -29.050781 -0.671875 -30.085938 -1.359375 -31.015625 C -2.046875 -31.941406 -2.960938 -32.488281 -4.109375 -32.65625 L -27.46875 -36.015625 C -28.613281 -36.179688 -29.648438 -35.914062 -30.578125 -35.21875 C -31.515625 -34.53125 -32.066406 -33.613281 -32.234375 -32.46875 Z M -34.140625 -19.25 "/></g></g></g><g fill="#c9d1d9" fill-opacity="1"><g transform="translate(661.116467, 170.556345)"><g><path d="M -1.125 -5.40625 L -40.453125 -3.359375 C -40.691406 -3.347656 -40.894531 -3.421875 -41.0625 -3.578125 C -41.238281 -3.742188 -41.332031 -3.925781 -41.34375 -4.125 L -42.453125 -25.375 C -42.515625 -26.5625 -42.34375 -27.695312 -41.9375 -28.78125 C -41.539062 -29.863281 -40.960938 -30.820312 -40.203125 -31.65625 C -39.441406 -32.5 -38.546875 -33.175781 -37.515625 -33.6875 C -36.484375 -34.195312 -35.367188 -34.484375 -34.171875 -34.546875 L -28.859375 -34.828125 C -27.660156 -34.890625 -26.507812 -34.71875 -25.40625 -34.3125 C -24.300781 -33.914062 -23.335938 -33.335938 -22.515625 -32.578125 C -21.703125 -31.816406 -21.039062 -30.921875 -20.53125 -29.890625 C -20.019531 -28.859375 -19.734375 -27.75 -19.671875 -26.5625 L -18.75 -9.03125 L -1.359375 -9.9375 C -0.796875 -9.96875 -0.503906 -9.703125 -0.484375 -9.140625 L -0.328125 -6.265625 C -0.316406 -6.066406 -0.382812 -5.875 -0.53125 -5.6875 C -0.6875 -5.507812 -0.882812 -5.414062 -1.125 -5.40625 Z M -23.296875 -8.796875 L -24.21875 -26.328125 C -24.28125 -27.472656 -24.738281 -28.429688 -25.59375 -29.203125 C -26.457031 -29.984375 -27.46875 -30.34375 -28.625 -30.28125 L -33.9375 -30 C -35.09375 -29.9375 -36.0625 -29.472656 -36.84375 -28.609375 C -37.625 -27.753906 -37.984375 -26.753906 -37.921875 -25.609375 L -37 -8.078125 Z M -23.296875 -8.796875 "/></g></g></g><g fill="#c9d1d9" fill-opacity="1"><g transform="translate(655.702354, 107.531391)"><g><path d="M -2.375 -6.015625 L -40.578125 3.625 C -41.117188 3.757812 -41.460938 3.554688 -41.609375 3.015625 L -48.421875 -24.03125 C -48.566406 -24.570312 -48.367188 -24.910156 -47.828125 -25.046875 L -45.03125 -25.75 C -44.5 -25.882812 -44.160156 -25.679688 -44.015625 -25.140625 L -38.09375 -1.625 L -24.796875 -4.984375 L -29.9375 -25.359375 C -29.988281 -25.554688 -29.945312 -25.757812 -29.8125 -25.96875 C -29.6875 -26.1875 -29.519531 -26.320312 -29.3125 -26.375 L -26.53125 -27.078125 C -26.300781 -27.140625 -26.085938 -27.101562 -25.890625 -26.96875 C -25.691406 -26.832031 -25.566406 -26.664062 -25.515625 -26.46875 L -20.375 -6.09375 L -7.078125 -9.453125 L -13 -32.96875 C -13.0625 -33.195312 -13.023438 -33.410156 -12.890625 -33.609375 C -12.765625 -33.804688 -12.609375 -33.929688 -12.421875 -33.984375 L -9.625 -34.6875 C -9.082031 -34.820312 -8.738281 -34.617188 -8.59375 -34.078125 L -1.78125 -7.03125 C -1.632812 -6.488281 -1.832031 -6.148438 -2.375 -6.015625 Z M -2.375 -6.015625 "/></g></g></g><g fill="#c9d1d9" fill-opacity="1"><g transform="translate(638.232261, 46.823875)"><g><path d="M -13.796875 -27.3125 L -26.265625 -12.78125 L -20.78125 -1.203125 L -5.046875 -8.671875 C -4.535156 -8.910156 -4.160156 -8.78125 -3.921875 -8.28125 L -2.71875 -5.734375 C -2.476562 -5.234375 -2.613281 -4.863281 -3.125 -4.625 L -38.71875 12.234375 C -39.226562 12.484375 -39.601562 12.359375 -39.84375 11.859375 L -48.921875 -7.296875 C -49.429688 -8.378906 -49.703125 -9.5 -49.734375 -10.65625 C -49.773438 -11.8125 -49.601562 -12.921875 -49.21875 -13.984375 C -48.832031 -15.046875 -48.257812 -16.007812 -47.5 -16.875 C -46.75 -17.738281 -45.832031 -18.425781 -44.75 -18.9375 L -39.9375 -21.21875 C -38.164062 -22.0625 -36.332031 -22.28125 -34.4375 -21.875 C -32.539062 -21.46875 -30.941406 -20.535156 -29.640625 -19.078125 L -28.234375 -17.5 L -15.921875 -31.8125 C -15.804688 -32.007812 -15.648438 -32.09375 -15.453125 -32.0625 C -15.265625 -32.039062 -15.125 -31.925781 -15.03125 -31.71875 L -13.609375 -28.734375 C -13.503906 -28.515625 -13.472656 -28.265625 -13.515625 -27.984375 C -13.566406 -27.703125 -13.660156 -27.476562 -13.796875 -27.3125 Z M -24.890625 0.734375 L -32.40625 -15.125 C -32.894531 -16.175781 -33.6875 -16.894531 -34.78125 -17.28125 C -35.875 -17.664062 -36.945312 -17.609375 -38 -17.109375 L -42.8125 -14.828125 C -43.851562 -14.335938 -44.566406 -13.546875 -44.953125 -12.453125 C -45.347656 -11.367188 -45.300781 -10.300781 -44.8125 -9.25 L -37.296875 6.609375 Z M -24.890625 0.734375 "/></g></g></g></g></g><path fill="#1f6feb" d="M 668.734375 857.8125 C 666.300781 857.8125 663.90625 856.996094 661.992188 855.46875 L 538.820312 758.5625 C 536.171875 756.480469 534.652344 753.359375 534.652344 749.996094 C 534.652344 746.632812 536.171875 743.511719 538.8125 741.410156 L 661.992188 644.523438 C 663.90625 643 666.300781 642.179688 668.734375 642.179688 C 672.101562 642.179688 675.238281 643.6875 677.304688 646.34375 C 679.105469 648.628906 679.921875 651.492188 679.570312 654.371094 C 679.234375 657.269531 677.765625 659.851562 675.480469 661.65625 L 563.226562 749.996094 L 675.480469 838.320312 C 677.765625 840.140625 679.234375 842.722656 679.570312 845.601562 C 679.921875 848.503906 679.105469 851.34375 677.304688 853.648438 C 675.238281 856.289062 672.101562 857.8125 668.734375 857.8125 " fill-opacity="1" fill-rule="nonzero"/><path fill="#0a192f" d="M 668.734375 637.535156 C 665.261719 637.535156 661.859375 638.707031 659.128906 640.859375 L 535.945312 737.769531 C 532.164062 740.761719 530.007812 745.203125 530.007812 749.996094 C 530.007812 754.789062 532.179688 759.25 535.945312 762.222656 L 659.128906 859.132812 C 661.84375 861.269531 665.261719 862.457031 668.734375 862.457031 C 673.550781 862.457031 678.007812 860.285156 680.964844 856.511719 C 683.546875 853.257812 684.679688 849.191406 684.195312 845.0625 C 683.695312 840.9375 681.632812 837.242188 678.363281 834.675781 L 570.730469 749.996094 L 678.363281 665.316406 C 681.632812 662.734375 683.695312 659.054688 684.195312 654.929688 C 684.679688 650.804688 683.546875 646.734375 680.964844 643.460938 C 678.007812 639.691406 673.53125 637.535156 668.734375 637.535156 Z M 668.734375 646.828125 C 670.59375 646.828125 672.433594 647.644531 673.660156 649.203125 C 675.816406 651.9375 675.332031 655.875 672.621094 658.011719 L 555.699219 749.996094 L 672.621094 841.980469 C 675.332031 844.117188 675.816406 848.054688 673.660156 850.769531 C 672.433594 852.347656 670.59375 853.167969 668.734375 853.167969 C 667.378906 853.167969 666.023438 852.738281 664.871094 851.828125 L 541.6875 754.921875 C 540.183594 753.730469 539.300781 751.910156 539.300781 749.996094 C 539.300781 748.0625 540.183594 746.261719 541.6875 745.070312 L 664.871094 648.164062 C 666.003906 647.253906 667.378906 646.828125 668.734375 646.828125 " fill-opacity="1" fill-rule="nonzero"/><path fill="#1f6feb" d="M 831.257812 857.8125 C 827.894531 857.8125 824.773438 856.289062 822.671875 853.648438 C 818.957031 848.929688 819.773438 842.054688 824.511719 838.320312 L 936.789062 749.996094 L 824.511719 661.65625 C 819.773438 657.9375 818.957031 651.0625 822.671875 646.34375 C 824.773438 643.6875 827.894531 642.179688 831.257812 642.179688 C 833.691406 642.179688 836.089844 643 838.003906 644.523438 L 961.1875 741.410156 C 963.828125 743.511719 965.332031 746.632812 965.332031 749.996094 C 965.332031 753.359375 963.828125 756.480469 961.167969 758.5625 L 838.003906 855.46875 C 836.089844 856.996094 833.691406 857.8125 831.257812 857.8125 " fill-opacity="1" fill-rule="nonzero"/><path fill="#0a192f" d="M 831.257812 637.535156 C 826.464844 637.535156 822.003906 639.691406 819.03125 643.460938 C 813.71875 650.207031 814.886719 660 821.632812 665.316406 L 929.261719 749.996094 L 821.632812 834.675781 C 814.886719 839.972656 813.71875 849.785156 819.03125 856.511719 C 822.003906 860.285156 826.464844 862.457031 831.257812 862.457031 C 834.734375 862.457031 838.132812 861.269531 840.867188 859.132812 L 964.050781 762.222656 C 967.820312 759.25 969.976562 754.789062 969.976562 749.996094 C 969.976562 745.203125 967.820312 740.761719 964.066406 737.769531 L 840.882812 640.859375 C 838.152344 638.707031 834.734375 637.535156 831.257812 637.535156 Z M 831.257812 646.828125 C 832.617188 646.828125 833.992188 647.253906 835.125 648.164062 L 958.308594 745.070312 C 959.8125 746.261719 960.6875 748.0625 960.6875 749.996094 C 960.6875 751.910156 959.8125 753.730469 958.308594 754.921875 L 835.125 851.828125 C 833.992188 852.738281 832.613281 853.167969 831.257812 853.167969 C 829.402344 853.167969 827.5625 852.347656 826.335938 850.769531 C 824.199219 848.054688 824.660156 844.117188 827.375 841.980469 L 944.296875 749.996094 L 827.375 658.011719 C 824.660156 655.875 824.199219 651.9375 826.335938 649.203125 C 827.5625 647.644531 829.417969 646.828125 831.257812 646.828125 " fill-opacity="1" fill-rule="nonzero"/><path fill="#1f6feb" d="M 688.785156 916.292969 C 687.429688 916.292969 686.109375 916.03125 684.847656 915.546875 C 682.132812 914.488281 679.980469 912.445312 678.808594 909.789062 C 677.617188 907.109375 677.5625 904.15625 678.605469 901.445312 L 798.90625 590.671875 C 800.523438 586.507812 804.613281 583.703125 809.070312 583.703125 C 810.429688 583.703125 811.765625 583.960938 813.03125 584.445312 C 818.621094 586.617188 821.429688 592.957031 819.253906 598.566406 L 698.96875 909.324219 C 697.351562 913.484375 693.246094 916.292969 688.785156 916.292969 " fill-opacity="1" fill-rule="nonzero"/><g clip-path="url(#ca7a823c96)"><path fill="#0a192f" d="M 809.070312 579.054688 C 802.699219 579.054688 796.863281 583.070312 794.578125 588.996094 L 674.273438 899.753906 C 672.789062 903.636719 672.878906 907.855469 674.550781 911.664062 C 676.242188 915.453125 679.292969 918.390625 683.175781 919.878906 C 684.976562 920.582031 686.855469 920.9375 688.785156 920.9375 C 695.160156 920.9375 700.996094 916.941406 703.300781 910.996094 L 823.585938 600.238281 C 826.6875 592.230469 822.691406 583.199219 814.683594 580.113281 C 812.898438 579.410156 811.003906 579.054688 809.070312 579.054688 Z M 809.070312 588.347656 C 809.832031 588.347656 810.59375 588.496094 811.339844 588.773438 C 814.570312 590.019531 816.167969 593.644531 814.925781 596.875 L 694.621094 907.632812 C 693.675781 910.121094 691.296875 911.644531 688.785156 911.644531 C 688.023438 911.644531 687.261719 911.515625 686.519531 911.21875 C 683.285156 909.972656 681.6875 906.332031 682.953125 903.117188 L 803.238281 592.359375 C 804.203125 589.871094 806.5625 588.347656 809.070312 588.347656 " fill-opacity="1" fill-rule="nonzero"/></g><g transform="matrix(1, 0, 0, 1, 330, 301)"><g clip-path="url(#84ff10c067)"><g fill="#c9d1d9" fill-opacity="1"><g transform="translate(122.021933, 409.089057)"><g><path d="M -24.09375 -34.203125 C -24.144531 -33.835938 -24.316406 -33.546875 -24.609375 -33.328125 C -24.910156 -33.109375 -25.238281 -33.023438 -25.59375 -33.078125 L -26 -33.140625 C -26.675781 -33.234375 -27.273438 -33.085938 -27.796875 -32.703125 C -28.316406 -32.316406 -28.625 -31.789062 -28.71875 -31.125 L -30.390625 -19.5625 C -30.484375 -18.894531 -30.332031 -18.304688 -29.9375 -17.796875 C -29.550781 -17.296875 -29.019531 -17 -28.34375 -16.90625 L -8.671875 -14.078125 C -8.003906 -13.972656 -7.410156 -14.109375 -6.890625 -14.484375 C -6.378906 -14.859375 -6.078125 -15.378906 -5.984375 -16.046875 L -4.3125 -27.609375 C -4.21875 -28.273438 -4.363281 -28.863281 -4.75 -29.375 C -5.132812 -29.894531 -5.660156 -30.207031 -6.328125 -30.3125 L -6.75 -30.375 C -7.101562 -30.425781 -7.390625 -30.597656 -7.609375 -30.890625 C -7.828125 -31.179688 -7.910156 -31.507812 -7.859375 -31.875 L -7.078125 -37.375 C -7.023438 -37.738281 -6.851562 -38.03125 -6.5625 -38.25 C -6.269531 -38.46875 -5.945312 -38.550781 -5.59375 -38.5 L -5.171875 -38.4375 C -3.710938 -38.21875 -2.390625 -37.738281 -1.203125 -37 C -0.015625 -36.269531 0.984375 -35.363281 1.796875 -34.28125 C 2.609375 -33.195312 3.195312 -31.984375 3.5625 -30.640625 C 3.9375 -29.296875 4.019531 -27.894531 3.8125 -26.4375 L 2.140625 -14.875 C 1.941406 -13.457031 1.472656 -12.144531 0.734375 -10.9375 C -0.00390625 -9.726562 -0.914062 -8.71875 -2 -7.90625 C -3.082031 -7.09375 -4.296875 -6.5 -5.640625 -6.125 C -6.984375 -5.757812 -8.382812 -5.6875 -9.84375 -5.90625 L -29.515625 -8.734375 C -30.984375 -8.941406 -32.3125 -9.410156 -33.5 -10.140625 C -34.6875 -10.878906 -35.679688 -11.789062 -36.484375 -12.875 C -37.296875 -13.96875 -37.882812 -15.195312 -38.25 -16.5625 C -38.625 -17.925781 -38.710938 -19.316406 -38.515625 -20.734375 L -36.84375 -32.296875 C -36.632812 -33.753906 -36.160156 -35.078125 -35.421875 -36.265625 C -34.679688 -37.453125 -33.769531 -38.445312 -32.6875 -39.25 C -31.613281 -40.0625 -30.40625 -40.648438 -29.0625 -41.015625 C -27.71875 -41.390625 -26.3125 -41.472656 -24.84375 -41.265625 L -24.4375 -41.203125 C -24.082031 -41.148438 -23.789062 -40.976562 -23.5625 -40.6875 C -23.34375 -40.394531 -23.257812 -40.066406 -23.3125 -39.703125 Z M -24.09375 -34.203125 "/></g></g></g><g fill="#c9d1d9" fill-opacity="1"><g transform="translate(131.426774, 353.651362)"><g><path d="M -27.859375 -40.59375 C -28.203125 -40.71875 -28.453125 -40.941406 -28.609375 -41.265625 C -28.773438 -41.585938 -28.796875 -41.921875 -28.671875 -42.265625 L -26.8125 -47.5625 C -26.6875 -47.914062 -26.460938 -48.160156 -26.140625 -48.296875 C -25.816406 -48.441406 -25.484375 -48.453125 -25.140625 -48.328125 L 11.125 -35.578125 C 11.457031 -35.460938 11.707031 -35.25 11.875 -34.9375 C 12.039062 -34.625 12.0625 -34.289062 11.9375 -33.9375 L 10.078125 -28.640625 C 9.953125 -28.296875 9.722656 -28.046875 9.390625 -27.890625 C 9.066406 -27.742188 8.738281 -27.726562 8.40625 -27.84375 L -5.828125 -32.84375 L -11.28125 -17.359375 L 2.953125 -12.359375 C 3.285156 -12.242188 3.53125 -12.019531 3.6875 -11.6875 C 3.851562 -11.351562 3.875 -11.015625 3.75 -10.671875 L 1.890625 -5.359375 C 1.773438 -5.023438 1.550781 -4.789062 1.21875 -4.65625 C 0.894531 -4.519531 0.566406 -4.507812 0.234375 -4.625 L -36.03125 -17.375 C -36.375 -17.5 -36.625 -17.710938 -36.78125 -18.015625 C -36.945312 -18.328125 -36.972656 -18.648438 -36.859375 -18.984375 L -35 -24.296875 C -34.875 -24.640625 -34.644531 -24.890625 -34.3125 -25.046875 C -33.988281 -25.210938 -33.65625 -25.234375 -33.3125 -25.109375 L -19.03125 -20.09375 L -13.578125 -35.578125 Z M -27.859375 -40.59375 "/></g></g></g><g fill="#c9d1d9" fill-opacity="1"><g transform="translate(151.398492, 301.169198)"><g><path d="M 7.609375 -12.890625 C 6.878906 -11.648438 5.945312 -10.617188 4.8125 -9.796875 C 3.6875 -8.984375 2.46875 -8.410156 1.15625 -8.078125 C -0.15625 -7.742188 -1.503906 -7.660156 -2.890625 -7.828125 C -4.273438 -8.003906 -5.601562 -8.46875 -6.875 -9.21875 L -31.984375 -24.046875 C -32.296875 -24.222656 -32.5 -24.488281 -32.59375 -24.84375 C -32.6875 -25.195312 -32.640625 -25.53125 -32.453125 -25.84375 L -29.625 -30.625 C -29.4375 -30.945312 -29.164062 -31.148438 -28.8125 -31.234375 C -28.457031 -31.328125 -28.125 -31.285156 -27.8125 -31.109375 L -2.703125 -16.28125 C -2.117188 -15.9375 -1.507812 -15.84375 -0.875 -16 C -0.25 -16.15625 0.222656 -16.507812 0.546875 -17.0625 L 6.515625 -27.171875 C 6.859375 -27.753906 6.941406 -28.351562 6.765625 -28.96875 C 6.597656 -29.582031 6.222656 -30.0625 5.640625 -30.40625 L -19.46875 -45.234375 C -19.78125 -45.410156 -19.984375 -45.675781 -20.078125 -46.03125 C -20.171875 -46.382812 -20.125 -46.71875 -19.9375 -47.03125 L -17.078125 -51.875 C -16.890625 -52.1875 -16.617188 -52.382812 -16.265625 -52.46875 C -15.910156 -52.550781 -15.578125 -52.503906 -15.265625 -52.328125 L 9.84375 -37.5 C 11.113281 -36.75 12.15625 -35.804688 12.96875 -34.671875 C 13.78125 -33.546875 14.359375 -32.328125 14.703125 -31.015625 C 15.046875 -29.703125 15.125 -28.34375 14.9375 -26.9375 C 14.757812 -25.539062 14.304688 -24.226562 13.578125 -23 Z M 7.609375 -12.890625 "/></g></g></g><g fill="#c9d1d9" fill-opacity="1"><g transform="translate(181.196571, 253.496078)"><g><path d="M -6.671875 -54.203125 C -6.429688 -54.472656 -6.132812 -54.628906 -5.78125 -54.671875 C -5.414062 -54.660156 -5.097656 -54.535156 -4.828125 -54.296875 L 23.84375 -28.703125 C 24.113281 -28.460938 24.257812 -28.175781 24.28125 -27.84375 C 24.3125 -27.445312 24.207031 -27.113281 23.96875 -26.84375 L 20.25 -22.703125 C 20.007812 -22.421875 19.707031 -22.285156 19.34375 -22.296875 C 18.976562 -22.242188 18.660156 -22.335938 18.390625 -22.578125 L -0.6875 -39.609375 L 1.859375 -30.765625 C 1.960938 -30.410156 1.984375 -30.015625 1.921875 -29.578125 C 1.804688 -29.148438 1.628906 -28.804688 1.390625 -28.546875 L -0.375 -26.578125 C -0.601562 -26.304688 -0.925781 -26.082031 -1.34375 -25.90625 C -1.757812 -25.8125 -2.15625 -25.796875 -2.53125 -25.859375 L -11.671875 -27.375 L 7.4375 -10.3125 C 7.707031 -10.070312 7.847656 -9.78125 7.859375 -9.4375 C 7.878906 -9.039062 7.769531 -8.707031 7.53125 -8.4375 L 3.828125 -4.296875 C 3.585938 -4.015625 3.28125 -3.878906 2.90625 -3.890625 C 2.550781 -3.847656 2.238281 -3.945312 1.96875 -4.1875 L -26.703125 -29.78125 C -26.972656 -30.019531 -27.125 -30.332031 -27.15625 -30.71875 C -27.164062 -31.0625 -27.050781 -31.375 -26.8125 -31.65625 L -23.109375 -35.796875 L -22.78125 -36.0625 C -22.613281 -36.175781 -22.410156 -36.257812 -22.171875 -36.3125 C -21.753906 -36.488281 -21.359375 -36.539062 -20.984375 -36.46875 L -6.015625 -33.359375 L -10.78125 -47.90625 C -10.882812 -48.269531 -10.890625 -48.648438 -10.796875 -49.046875 L -10.65625 -49.546875 C -10.613281 -49.734375 -10.523438 -49.90625 -10.390625 -50.0625 Z M -6.671875 -54.203125 "/></g></g></g><g fill="#c9d1d9" fill-opacity="1"><g transform="translate(219.673292, 212.509388)"><g><path d="M -3.625 -48.734375 C -3.34375 -48.941406 -2.992188 -49.050781 -2.578125 -49.0625 C -2.171875 -49.082031 -1.820312 -49 -1.53125 -48.8125 L 18.28125 -36.921875 C 18.5625 -36.734375 18.890625 -36.46875 19.265625 -36.125 C 19.648438 -35.789062 19.953125 -35.476562 20.171875 -35.1875 L 28.96875 -23.53125 C 29.1875 -23.25 29.269531 -22.925781 29.21875 -22.5625 C 29.175781 -22.195312 29.007812 -21.90625 28.71875 -21.6875 L 24.21875 -18.296875 C 23.9375 -18.078125 23.613281 -17.992188 23.25 -18.046875 C 22.882812 -18.097656 22.59375 -18.265625 22.375 -18.546875 L 18.234375 -24.046875 L 5.15625 -14.171875 L 9.296875 -8.671875 C 9.515625 -8.390625 9.597656 -8.0625 9.546875 -7.6875 C 9.492188 -7.320312 9.320312 -7.03125 9.03125 -6.8125 L 4.59375 -3.46875 C 4.300781 -3.25 3.972656 -3.164062 3.609375 -3.21875 C 3.253906 -3.269531 2.96875 -3.4375 2.75 -3.71875 L -6.046875 -15.375 C -6.265625 -15.664062 -6.484375 -16.039062 -6.703125 -16.5 C -6.929688 -16.96875 -7.09375 -17.359375 -7.1875 -17.671875 L -13.28125 -39.9375 C -13.34375 -40.289062 -13.3125 -40.664062 -13.1875 -41.0625 C -13.0625 -41.457031 -12.851562 -41.765625 -12.5625 -41.984375 Z M 0.4375 -20.890625 L 13.03125 -30.40625 L -2.125 -39.59375 L -4.234375 -38 Z M 0.4375 -20.890625 "/></g></g></g><g fill="#c9d1d9" fill-opacity="1"><g transform="translate(265.373676, 179.763617)"><g/></g></g><g fill="#c9d1d9" fill-opacity="1"><g transform="translate(316.50274, 156.527419)"><g><path d="M 22.0625 -35.5 C 21.71875 -35.40625 21.390625 -35.453125 21.078125 -35.640625 C 20.765625 -35.828125 20.5625 -36.097656 20.46875 -36.453125 L 20.359375 -36.84375 C 20.179688 -37.507812 19.820312 -38.003906 19.28125 -38.328125 C 18.738281 -38.660156 18.140625 -38.742188 17.484375 -38.578125 L 6.140625 -35.59375 C 5.523438 -35.4375 5.050781 -35.078125 4.71875 -34.515625 C 4.394531 -33.953125 4.320312 -33.335938 4.5 -32.671875 L 5.390625 -29.3125 C 5.554688 -28.664062 5.914062 -28.175781 6.46875 -27.84375 C 7.03125 -27.519531 7.617188 -27.4375 8.234375 -27.59375 L 19.578125 -30.578125 C 20.972656 -30.941406 22.359375 -31.015625 23.734375 -30.796875 C 25.117188 -30.585938 26.394531 -30.140625 27.5625 -29.453125 C 28.726562 -28.765625 29.742188 -27.875 30.609375 -26.78125 C 31.484375 -25.6875 32.097656 -24.453125 32.453125 -23.078125 L 33.34375 -19.703125 C 33.71875 -18.265625 33.796875 -16.851562 33.578125 -15.46875 C 33.359375 -14.09375 32.90625 -12.820312 32.21875 -11.65625 C 31.539062 -10.488281 30.65625 -9.472656 29.5625 -8.609375 C 28.46875 -7.753906 27.222656 -7.144531 25.828125 -6.78125 L 14.484375 -3.796875 C 13.085938 -3.429688 11.703125 -3.351562 10.328125 -3.5625 C 8.953125 -3.78125 7.675781 -4.226562 6.5 -4.90625 C 5.332031 -5.59375 4.316406 -6.484375 3.453125 -7.578125 C 2.597656 -8.671875 1.984375 -9.9375 1.609375 -11.375 L 1.5 -11.78125 C 1.40625 -12.132812 1.445312 -12.460938 1.625 -12.765625 C 1.8125 -13.078125 2.082031 -13.28125 2.4375 -13.375 L 7.8125 -14.796875 C 8.164062 -14.890625 8.5 -14.84375 8.8125 -14.65625 C 9.132812 -14.476562 9.34375 -14.210938 9.4375 -13.859375 L 9.546875 -13.453125 C 9.710938 -12.796875 10.078125 -12.304688 10.640625 -11.984375 C 11.203125 -11.660156 11.789062 -11.578125 12.40625 -11.734375 L 23.75 -14.71875 C 24.40625 -14.882812 24.882812 -15.242188 25.1875 -15.796875 C 25.5 -16.359375 25.570312 -16.96875 25.40625 -17.625 L 24.515625 -21 C 24.347656 -21.644531 23.992188 -22.125 23.453125 -22.4375 C 22.921875 -22.75 22.328125 -22.820312 21.671875 -22.65625 L 10.328125 -19.671875 C 8.929688 -19.304688 7.539062 -19.226562 6.15625 -19.4375 C 4.78125 -19.65625 3.507812 -20.101562 2.34375 -20.78125 C 1.175781 -21.46875 0.160156 -22.367188 -0.703125 -23.484375 C -1.566406 -24.597656 -2.179688 -25.847656 -2.546875 -27.234375 L -3.4375 -30.59375 C -3.8125 -32.03125 -3.890625 -33.4375 -3.671875 -34.8125 C -3.460938 -36.1875 -3.015625 -37.457031 -2.328125 -38.625 C -1.648438 -39.789062 -0.765625 -40.804688 0.328125 -41.671875 C 1.421875 -42.546875 2.664062 -43.164062 4.0625 -43.53125 L 15.40625 -46.515625 C 16.800781 -46.878906 18.1875 -46.945312 19.5625 -46.71875 C 20.9375 -46.5 22.207031 -46.046875 23.375 -45.359375 C 24.550781 -44.679688 25.570312 -43.796875 26.4375 -42.703125 C 27.300781 -41.617188 27.921875 -40.359375 28.296875 -38.921875 L 28.40625 -38.53125 C 28.5 -38.175781 28.457031 -37.84375 28.28125 -37.53125 C 28.113281 -37.21875 27.859375 -37.015625 27.515625 -36.921875 Z M 22.0625 -35.5 "/></g></g></g><g fill="#c9d1d9" fill-opacity="1"><g transform="translate(371.222683, 143.634459)"><g><path d="M 34.375 -36.296875 C 34.394531 -35.941406 34.28125 -35.632812 34.03125 -35.375 C 33.789062 -35.125 33.488281 -34.988281 33.125 -34.96875 L 22.90625 -34.34375 L 24.421875 -9.71875 L 34.640625 -10.34375 C 35.003906 -10.363281 35.320312 -10.25 35.59375 -10 C 35.875 -9.757812 36.023438 -9.460938 36.046875 -9.109375 L 36.390625 -3.546875 C 36.410156 -3.191406 36.296875 -2.875 36.046875 -2.59375 C 35.804688 -2.320312 35.503906 -2.175781 35.140625 -2.15625 L 6.578125 -0.40625 C 6.210938 -0.382812 5.890625 -0.492188 5.609375 -0.734375 C 5.335938 -0.984375 5.191406 -1.285156 5.171875 -1.640625 L 4.828125 -7.203125 C 4.804688 -7.554688 4.914062 -7.867188 5.15625 -8.140625 C 5.40625 -8.421875 5.710938 -8.570312 6.078125 -8.59375 L 16.234375 -9.21875 L 14.71875 -33.84375 L 4.5625 -33.21875 C 4.195312 -33.195312 3.875 -33.296875 3.59375 -33.515625 C 3.320312 -33.742188 3.175781 -34.035156 3.15625 -34.390625 L 2.8125 -40 C 2.789062 -40.363281 2.898438 -40.679688 3.140625 -40.953125 C 3.390625 -41.234375 3.695312 -41.382812 4.0625 -41.40625 L 32.625 -43.15625 C 32.988281 -43.175781 33.304688 -43.0625 33.578125 -42.8125 C 33.859375 -42.570312 34.007812 -42.269531 34.03125 -41.90625 Z M 34.375 -36.296875 "/></g></g></g><g fill="#c9d1d9" fill-opacity="1"><g transform="translate(427.406264, 141.613723)"><g><path d="M 41.140625 -35.90625 C 41.503906 -35.851562 41.785156 -35.679688 41.984375 -35.390625 C 42.191406 -35.109375 42.273438 -34.785156 42.234375 -34.421875 L 41 -25.28125 C 40.945312 -24.9375 40.8125 -24.554688 40.59375 -24.140625 C 40.375 -23.734375 40.101562 -23.410156 39.78125 -23.171875 L 26.90625 -12.640625 L 24.921875 2.09375 C 24.878906 2.394531 24.707031 2.660156 24.40625 2.890625 C 24.113281 3.117188 23.789062 3.207031 23.4375 3.15625 L 17.859375 2.40625 C 17.503906 2.351562 17.210938 2.179688 16.984375 1.890625 C 16.765625 1.597656 16.675781 1.300781 16.71875 1 L 18.703125 -13.734375 L 9.046875 -27.296875 C 8.804688 -27.617188 8.632812 -28.003906 8.53125 -28.453125 C 8.4375 -28.910156 8.414062 -29.3125 8.46875 -29.65625 L 9.703125 -38.796875 C 9.742188 -39.160156 9.898438 -39.453125 10.171875 -39.671875 C 10.453125 -39.898438 10.769531 -39.988281 11.125 -39.9375 L 16.703125 -39.1875 C 17.054688 -39.144531 17.34375 -38.976562 17.5625 -38.6875 C 17.789062 -38.394531 17.882812 -38.066406 17.84375 -37.703125 L 17.03125 -31.78125 C 16.988281 -31.425781 17.023438 -31.015625 17.140625 -30.546875 C 17.253906 -30.085938 17.410156 -29.722656 17.609375 -29.453125 L 23.828125 -20.765625 L 32.09375 -27.515625 C 32.375 -27.722656 32.628906 -28.03125 32.859375 -28.4375 C 33.097656 -28.851562 33.238281 -29.238281 33.28125 -29.59375 L 34.09375 -35.515625 C 34.132812 -35.878906 34.300781 -36.171875 34.59375 -36.390625 C 34.882812 -36.609375 35.210938 -36.695312 35.578125 -36.65625 Z M 41.140625 -35.90625 "/></g></g></g><g fill="#c9d1d9" fill-opacity="1"><g transform="translate(482.857118, 150.497211)"><g><path d="M 38.3125 -30.328125 C 38.644531 -30.210938 38.9375 -29.984375 39.1875 -29.640625 C 39.4375 -29.304688 39.566406 -28.96875 39.578125 -28.625 L 40.8125 -5.546875 C 40.820312 -5.210938 40.789062 -4.789062 40.71875 -4.28125 C 40.65625 -3.78125 40.5625 -3.359375 40.4375 -3.015625 L 35.71875 10.8125 C 35.601562 11.144531 35.382812 11.390625 35.0625 11.546875 C 34.738281 11.710938 34.398438 11.738281 34.046875 11.625 L 28.734375 9.8125 C 28.390625 9.6875 28.132812 9.460938 27.96875 9.140625 C 27.8125 8.816406 27.789062 8.488281 27.90625 8.15625 L 30.140625 1.625 L 14.625 -3.6875 L 12.390625 2.84375 C 12.273438 3.175781 12.050781 3.421875 11.71875 3.578125 C 11.382812 3.742188 11.046875 3.769531 10.703125 3.65625 L 5.4375 1.859375 C 5.09375 1.742188 4.84375 1.519531 4.6875 1.1875 C 4.53125 0.863281 4.507812 0.535156 4.625 0.203125 L 9.34375 -13.625 C 9.46875 -13.96875 9.65625 -14.359375 9.90625 -14.796875 C 10.164062 -15.242188 10.394531 -15.601562 10.59375 -15.875 L 25.640625 -33.375 C 25.898438 -33.625 26.222656 -33.804688 26.609375 -33.921875 C 27.003906 -34.046875 27.375 -34.050781 27.71875 -33.9375 Z M 17.546875 -11.34375 L 32.484375 -6.25 L 31.59375 -23.953125 L 29.09375 -24.796875 Z M 17.546875 -11.34375 "/></g></g></g><g fill="#c9d1d9" fill-opacity="1"><g transform="translate(535.585055, 170.010785)"><g><path d="M 51.71875 -17.546875 C 52.03125 -17.367188 52.222656 -17.109375 52.296875 -16.765625 C 52.378906 -16.421875 52.328125 -16.085938 52.140625 -15.765625 L 47.53125 -7.796875 C 47.351562 -7.484375 47.082031 -7.175781 46.71875 -6.875 C 46.363281 -6.570312 45.992188 -6.375 45.609375 -6.28125 L 29.671875 -1.453125 L 22.234375 11.421875 C 22.078125 11.691406 21.820312 11.875 21.46875 11.96875 C 21.113281 12.0625 20.785156 12.019531 20.484375 11.84375 L 15.59375 9.015625 C 15.289062 8.835938 15.085938 8.570312 14.984375 8.21875 C 14.890625 7.863281 14.921875 7.550781 15.078125 7.28125 L 22.515625 -5.59375 L 18.75 -21.796875 C 18.65625 -22.179688 18.648438 -22.601562 18.734375 -23.0625 C 18.816406 -23.519531 18.945312 -23.90625 19.125 -24.21875 L 23.734375 -32.1875 C 23.921875 -32.507812 24.179688 -32.722656 24.515625 -32.828125 C 24.859375 -32.929688 25.179688 -32.894531 25.484375 -32.71875 L 30.359375 -29.90625 C 30.671875 -29.71875 30.875 -29.445312 30.96875 -29.09375 C 31.0625 -28.738281 31.015625 -28.398438 30.828125 -28.078125 L 27.84375 -22.90625 C 27.664062 -22.59375 27.539062 -22.203125 27.46875 -21.734375 C 27.40625 -21.265625 27.421875 -20.867188 27.515625 -20.546875 L 29.9375 -10.140625 L 40.15625 -13.234375 C 40.476562 -13.316406 40.828125 -13.503906 41.203125 -13.796875 C 41.585938 -14.085938 41.867188 -14.390625 42.046875 -14.703125 L 45.03125 -19.875 C 45.21875 -20.195312 45.488281 -20.40625 45.84375 -20.5 C 46.195312 -20.59375 46.53125 -20.550781 46.84375 -20.375 Z M 51.71875 -17.546875 "/></g></g></g><g fill="#c9d1d9" fill-opacity="1"><g transform="translate(583.487641, 199.31892)"><g><path d="M 46.96875 -13.46875 C 47.238281 -13.226562 47.421875 -12.90625 47.515625 -12.5 C 47.617188 -12.101562 47.609375 -11.742188 47.484375 -11.421875 L 39.84375 10.390625 C 39.726562 10.703125 39.539062 11.078125 39.28125 11.515625 C 39.03125 11.960938 38.785156 12.320312 38.546875 12.59375 L 28.921875 23.59375 C 28.691406 23.851562 28.394531 23.992188 28.03125 24.015625 C 27.664062 24.046875 27.34375 23.941406 27.0625 23.703125 L 22.84375 20 C 22.5625 19.757812 22.410156 19.457031 22.390625 19.09375 C 22.367188 18.726562 22.472656 18.414062 22.703125 18.15625 L 27.25 12.96875 L 14.921875 2.15625 L 10.375 7.34375 C 10.144531 7.601562 9.84375 7.742188 9.46875 7.765625 C 9.101562 7.796875 8.785156 7.691406 8.515625 7.453125 L 4.328125 3.78125 C 4.046875 3.539062 3.894531 3.238281 3.875 2.875 C 3.863281 2.507812 3.972656 2.195312 4.203125 1.9375 L 13.828125 -9.0625 C 14.066406 -9.332031 14.390625 -9.617188 14.796875 -9.921875 C 15.203125 -10.234375 15.546875 -10.472656 15.828125 -10.640625 L 36.390625 -21.125 C 36.734375 -21.25 37.109375 -21.289062 37.515625 -21.25 C 37.929688 -21.21875 38.273438 -21.082031 38.546875 -20.84375 Z M 20.546875 -3.8125 L 32.421875 6.59375 L 38.328125 -10.140625 L 36.34375 -11.875 Z M 20.546875 -3.8125 "/></g></g></g></g></g></svg>